<mxfile host="Electron" modified="2024-03-17T10:08:05.205Z" agent="Mozilla/5.0 (Macintosh; Intel Mac OS X 10_15_7) AppleWebKit/537.36 (KHTML, like Gecko) draw.io/24.0.4 Chrome/120.0.6099.109 Electron/28.1.0 Safari/537.36" etag="Npq0ABJRFhTmPkrC2XcD" version="24.0.4" type="device">
  <diagram name="Page-1" id="vuTP3f4oRu1xRU0ZTQ_9">
    <mxGraphModel dx="1442" dy="938" grid="1" gridSize="10" guides="1" tooltips="1" connect="1" arrows="1" fold="1" page="0" pageScale="1" pageWidth="827" pageHeight="1169" math="0" shadow="0">
      <root>
        <mxCell id="0" />
        <mxCell id="1" parent="0" />
        <mxCell id="ri-1kQfPMMyonyuRAw9I-2" value="Processor" style="rounded=1;whiteSpace=wrap;html=1;fillColor=#dae8fc;strokeColor=#6c8ebf;" vertex="1" parent="1">
          <mxGeometry x="-168" y="20" width="120" height="60" as="geometry" />
        </mxCell>
        <mxCell id="ri-1kQfPMMyonyuRAw9I-4" value="Producer" style="rounded=1;whiteSpace=wrap;html=1;fillColor=#d5e8d4;strokeColor=#82b366;" vertex="1" parent="1">
          <mxGeometry x="-468" y="20" width="120" height="60" as="geometry" />
        </mxCell>
        <mxCell id="ri-1kQfPMMyonyuRAw9I-5" value="Pipeline" style="rounded=0;whiteSpace=wrap;html=1;fillColor=#f5f5f5;fontColor=#333333;strokeColor=#666666;" vertex="1" parent="1">
          <mxGeometry x="-164.5" y="-67" width="113" height="34" as="geometry" />
        </mxCell>
        <mxCell id="ri-1kQfPMMyonyuRAw9I-11" value="" style="shape=cylinder3;whiteSpace=wrap;html=1;boundedLbl=1;backgroundOutline=1;size=15;rotation=-90;" vertex="1" parent="1">
          <mxGeometry x="-288" y="10" width="60" height="80" as="geometry" />
        </mxCell>
        <mxCell id="ri-1kQfPMMyonyuRAw9I-26" value="" style="endArrow=classic;html=1;rounded=0;fontSize=12;startSize=8;endSize=8;curved=1;exitX=1;exitY=0.5;exitDx=0;exitDy=0;entryX=0.5;entryY=0;entryDx=0;entryDy=0;entryPerimeter=0;" edge="1" parent="1" source="ri-1kQfPMMyonyuRAw9I-4" target="ri-1kQfPMMyonyuRAw9I-11">
          <mxGeometry width="50" height="50" relative="1" as="geometry">
            <mxPoint x="-228" y="84" as="sourcePoint" />
            <mxPoint x="-178" y="34" as="targetPoint" />
          </mxGeometry>
        </mxCell>
        <mxCell id="ri-1kQfPMMyonyuRAw9I-30" value="" style="endArrow=classic;html=1;rounded=0;fontSize=12;startSize=8;endSize=8;curved=1;exitX=0.5;exitY=1;exitDx=0;exitDy=0;exitPerimeter=0;entryX=0;entryY=0.5;entryDx=0;entryDy=0;" edge="1" parent="1" source="ri-1kQfPMMyonyuRAw9I-11" target="ri-1kQfPMMyonyuRAw9I-2">
          <mxGeometry width="50" height="50" relative="1" as="geometry">
            <mxPoint x="-138" y="49.5" as="sourcePoint" />
            <mxPoint x="-78" y="84" as="targetPoint" />
          </mxGeometry>
        </mxCell>
        <mxCell id="ri-1kQfPMMyonyuRAw9I-32" value="Exporter" style="rounded=1;whiteSpace=wrap;html=1;fillColor=#f8cecc;strokeColor=#b85450;" vertex="1" parent="1">
          <mxGeometry x="132" y="20" width="120" height="60" as="geometry" />
        </mxCell>
        <mxCell id="ri-1kQfPMMyonyuRAw9I-33" value="" style="shape=cylinder3;whiteSpace=wrap;html=1;boundedLbl=1;backgroundOutline=1;size=15;rotation=-90;" vertex="1" parent="1">
          <mxGeometry x="12" y="10" width="60" height="80" as="geometry" />
        </mxCell>
        <mxCell id="ri-1kQfPMMyonyuRAw9I-34" value="" style="endArrow=classic;html=1;rounded=0;fontSize=12;startSize=8;endSize=8;curved=1;exitX=1;exitY=0.5;exitDx=0;exitDy=0;entryX=0.5;entryY=0;entryDx=0;entryDy=0;entryPerimeter=0;" edge="1" parent="1" target="ri-1kQfPMMyonyuRAw9I-33" source="ri-1kQfPMMyonyuRAw9I-2">
          <mxGeometry width="50" height="50" relative="1" as="geometry">
            <mxPoint x="-28" y="50" as="sourcePoint" />
            <mxPoint x="142" y="34" as="targetPoint" />
          </mxGeometry>
        </mxCell>
        <mxCell id="ri-1kQfPMMyonyuRAw9I-35" value="" style="endArrow=classic;html=1;rounded=0;fontSize=12;startSize=8;endSize=8;curved=1;exitX=0.5;exitY=1;exitDx=0;exitDy=0;exitPerimeter=0;entryX=0;entryY=0.5;entryDx=0;entryDy=0;" edge="1" parent="1" source="ri-1kQfPMMyonyuRAw9I-33" target="ri-1kQfPMMyonyuRAw9I-32">
          <mxGeometry width="50" height="50" relative="1" as="geometry">
            <mxPoint x="162" y="49.5" as="sourcePoint" />
            <mxPoint x="222" y="84" as="targetPoint" />
          </mxGeometry>
        </mxCell>
      </root>
    </mxGraphModel>
  </diagram>
</mxfile>
